G04 Layer: TopSolderMaskLayer*
G04 EasyEDA v6.4.25, 2021-10-12T19:11:13--3:00*
G04 c22c5ad297e649dda918693bc59ac449,3e531cdebb5f4b4d8e7d377dd7e3e81f,10*
G04 Gerber Generator version 0.2*
G04 Scale: 100 percent, Rotated: No, Reflected: No *
G04 Dimensions in millimeters *
G04 leading zeros omitted , absolute positions ,4 integer and 5 decimal *
%FSLAX45Y45*%
%MOMM*%

%ADD65C,0.6616*%
%ADD66C,1.7272*%
%ADD67C,1.5616*%
%ADD68C,0.4656*%
%ADD69C,0.7016*%
%ADD70R,1.4516X1.5116*%
%ADD72C,2.1016*%
%ADD78C,3.7592*%
%ADD80C,2.4016*%
%ADD88C,1.7016*%
%ADD89C,2.8956*%
%ADD90C,1.7018*%
%ADD93C,1.9812*%

%LPD*%
D65*
X-6336698Y-63893700D02*
G01*
X-6455199Y-63893700D01*
X-6336698Y-64020700D02*
G01*
X-6455199Y-64020700D01*
X-6336698Y-64147700D02*
G01*
X-6455199Y-64147700D01*
X-6336698Y-64274700D02*
G01*
X-6455199Y-64274700D01*
X-6336698Y-64401700D02*
G01*
X-6455199Y-64401700D01*
X-6336698Y-64528700D02*
G01*
X-6455199Y-64528700D01*
X-6336698Y-64655700D02*
G01*
X-6455199Y-64655700D01*
X-6336698Y-64782700D02*
G01*
X-6455199Y-64782700D01*
X-5762200Y-63893700D02*
G01*
X-5880701Y-63893700D01*
X-5762200Y-64020700D02*
G01*
X-5880701Y-64020700D01*
X-5762200Y-64147700D02*
G01*
X-5880701Y-64147700D01*
X-5762200Y-64274700D02*
G01*
X-5880701Y-64274700D01*
X-5762200Y-64401700D02*
G01*
X-5880701Y-64401700D01*
X-5762200Y-64528700D02*
G01*
X-5880701Y-64528700D01*
X-5762200Y-64655700D02*
G01*
X-5880701Y-64655700D01*
X-5762200Y-64782700D02*
G01*
X-5880701Y-64782700D01*
D66*
X-4762500Y-56057800D02*
G01*
X-4660900Y-56057800D01*
X-4762500Y-55803800D02*
G01*
X-4660900Y-55803800D01*
X-4762500Y-55549800D02*
G01*
X-4660900Y-55549800D01*
X-4762500Y-55295800D02*
G01*
X-4660900Y-55295800D01*
X-3556000Y-55816500D02*
G01*
X-3454400Y-55816500D01*
X-3556000Y-55562500D02*
G01*
X-3454400Y-55562500D01*
X-3556000Y-55308500D02*
G01*
X-3454400Y-55308500D01*
D67*
X-908850Y-57264300D02*
G01*
X-945349Y-57264300D01*
X-908850Y-57518300D02*
G01*
X-945349Y-57518300D01*
X-908850Y-57772300D02*
G01*
X-945349Y-57772300D01*
X-908850Y-58026300D02*
G01*
X-945349Y-58026300D01*
X-908850Y-58280300D02*
G01*
X-945349Y-58280300D01*
X-908850Y-58534300D02*
G01*
X-945349Y-58534300D01*
X-908850Y-58788300D02*
G01*
X-945349Y-58788300D01*
X-908850Y-59042300D02*
G01*
X-945349Y-59042300D01*
X-146850Y-57264300D02*
G01*
X-183349Y-57264300D01*
X-146850Y-57518300D02*
G01*
X-183349Y-57518300D01*
X-146850Y-57772300D02*
G01*
X-183349Y-57772300D01*
X-146850Y-58026300D02*
G01*
X-183349Y-58026300D01*
X-146850Y-58280300D02*
G01*
X-183349Y-58280300D01*
X-146850Y-58534300D02*
G01*
X-183349Y-58534300D01*
X-146850Y-58788300D02*
G01*
X-183349Y-58788300D01*
X-146850Y-59042300D02*
G01*
X-183349Y-59042300D01*
D66*
X-825500Y-61747400D02*
G01*
X-723900Y-61747400D01*
X-825500Y-61493400D02*
G01*
X-723900Y-61493400D01*
X-825500Y-61239400D02*
G01*
X-723900Y-61239400D01*
X-825500Y-60985400D02*
G01*
X-723900Y-60985400D01*
X-5041900Y-62484000D02*
G01*
X-4940300Y-62484000D01*
X-5041900Y-62230000D02*
G01*
X-4940300Y-62230000D01*
X-5041900Y-61976000D02*
G01*
X-4940300Y-61976000D01*
X-5041900Y-61722000D02*
G01*
X-4940300Y-61722000D01*
X-3060700Y-61747400D02*
G01*
X-2959100Y-61747400D01*
X-3060700Y-61493400D02*
G01*
X-2959100Y-61493400D01*
X-3060700Y-61239400D02*
G01*
X-2959100Y-61239400D01*
X-3060700Y-60985400D02*
G01*
X-2959100Y-60985400D01*
D68*
X-7230407Y-62208689D02*
G01*
X-7270706Y-62208689D01*
X-7230407Y-62273713D02*
G01*
X-7270706Y-62273713D01*
X-7230407Y-62338711D02*
G01*
X-7270706Y-62338711D01*
X-7230407Y-62403710D02*
G01*
X-7270706Y-62403710D01*
X-6978693Y-62403710D02*
G01*
X-7018992Y-62403710D01*
X-6978693Y-62338711D02*
G01*
X-7018992Y-62338711D01*
X-6978693Y-62273713D02*
G01*
X-7018992Y-62273713D01*
X-6978693Y-62208689D02*
G01*
X-7018992Y-62208689D01*
D69*
X-1073337Y-62350650D02*
G01*
X-903338Y-62350650D01*
X-1073337Y-62477650D02*
G01*
X-903338Y-62477650D01*
X-1073337Y-62604650D02*
G01*
X-903338Y-62604650D01*
X-1073337Y-62731650D02*
G01*
X-903338Y-62731650D01*
X-1073337Y-62858650D02*
G01*
X-903338Y-62858650D01*
X-1073337Y-62985650D02*
G01*
X-903338Y-62985650D01*
X-1073337Y-63112650D02*
G01*
X-903338Y-63112650D01*
X-1073337Y-63239650D02*
G01*
X-903338Y-63239650D01*
X-1073337Y-63366650D02*
G01*
X-903338Y-63366650D01*
X-1073337Y-63493650D02*
G01*
X-903338Y-63493650D01*
X-1073337Y-63620650D02*
G01*
X-903338Y-63620650D01*
X-1073337Y-63747650D02*
G01*
X-903338Y-63747650D01*
X-1073337Y-63874650D02*
G01*
X-903338Y-63874650D01*
X-1073337Y-64001650D02*
G01*
X-903338Y-64001650D01*
X-61833Y-62350650D02*
G01*
X108165Y-62350650D01*
X-61833Y-62477650D02*
G01*
X108165Y-62477650D01*
X-61833Y-62604650D02*
G01*
X108165Y-62604650D01*
X-61833Y-62731650D02*
G01*
X108165Y-62731650D01*
X-61833Y-62858650D02*
G01*
X108165Y-62858650D01*
X-61833Y-62985650D02*
G01*
X108165Y-62985650D01*
X-61833Y-63112650D02*
G01*
X108165Y-63112650D01*
X-61833Y-63239650D02*
G01*
X108165Y-63239650D01*
X-61833Y-63366650D02*
G01*
X108165Y-63366650D01*
X-61833Y-63493650D02*
G01*
X108165Y-63493650D01*
X-61833Y-63620650D02*
G01*
X108165Y-63620650D01*
X-61833Y-63747650D02*
G01*
X108165Y-63747650D01*
X-61833Y-63874650D02*
G01*
X108165Y-63874650D01*
X-61833Y-64001650D02*
G01*
X108165Y-64001650D01*
D67*
X-2705468Y-57264300D02*
G01*
X-2741968Y-57264300D01*
X-2705468Y-57518300D02*
G01*
X-2741968Y-57518300D01*
X-2705468Y-57772300D02*
G01*
X-2741968Y-57772300D01*
X-2705468Y-58026300D02*
G01*
X-2741968Y-58026300D01*
X-2705468Y-58280300D02*
G01*
X-2741968Y-58280300D01*
X-2705468Y-58534300D02*
G01*
X-2741968Y-58534300D01*
X-2705468Y-58788300D02*
G01*
X-2741968Y-58788300D01*
X-2705468Y-59042300D02*
G01*
X-2741968Y-59042300D01*
X-1943468Y-57264300D02*
G01*
X-1979968Y-57264300D01*
X-1943468Y-57518300D02*
G01*
X-1979968Y-57518300D01*
X-1943468Y-57772300D02*
G01*
X-1979968Y-57772300D01*
X-1943468Y-58026300D02*
G01*
X-1979968Y-58026300D01*
X-1943468Y-58280300D02*
G01*
X-1979968Y-58280300D01*
X-1943468Y-58534300D02*
G01*
X-1979968Y-58534300D01*
X-1943468Y-58788300D02*
G01*
X-1979968Y-58788300D01*
X-1943468Y-59042300D02*
G01*
X-1979968Y-59042300D01*
X850531Y-57264300D02*
G01*
X814031Y-57264300D01*
X850531Y-57518300D02*
G01*
X814031Y-57518300D01*
X850531Y-57772300D02*
G01*
X814031Y-57772300D01*
X850531Y-58026300D02*
G01*
X814031Y-58026300D01*
X850531Y-58280300D02*
G01*
X814031Y-58280300D01*
X850531Y-58534300D02*
G01*
X814031Y-58534300D01*
X850531Y-58788300D02*
G01*
X814031Y-58788300D01*
X850531Y-59042300D02*
G01*
X814031Y-59042300D01*
X1612531Y-57264300D02*
G01*
X1576031Y-57264300D01*
X1612531Y-57518300D02*
G01*
X1576031Y-57518300D01*
X1612531Y-57772300D02*
G01*
X1576031Y-57772300D01*
X1612531Y-58026300D02*
G01*
X1576031Y-58026300D01*
X1612531Y-58280300D02*
G01*
X1576031Y-58280300D01*
X1612531Y-58534300D02*
G01*
X1576031Y-58534300D01*
X1612531Y-58788300D02*
G01*
X1576031Y-58788300D01*
X1612531Y-59042300D02*
G01*
X1576031Y-59042300D01*
D69*
X-3346637Y-62382400D02*
G01*
X-3176638Y-62382400D01*
X-3346637Y-62509400D02*
G01*
X-3176638Y-62509400D01*
X-3346637Y-62636400D02*
G01*
X-3176638Y-62636400D01*
X-3346637Y-62763400D02*
G01*
X-3176638Y-62763400D01*
X-3346637Y-62890400D02*
G01*
X-3176638Y-62890400D01*
X-3346637Y-63017400D02*
G01*
X-3176638Y-63017400D01*
X-3346637Y-63144400D02*
G01*
X-3176638Y-63144400D01*
X-3346637Y-63271400D02*
G01*
X-3176638Y-63271400D01*
X-3346637Y-63398400D02*
G01*
X-3176638Y-63398400D01*
X-3346637Y-63525400D02*
G01*
X-3176638Y-63525400D01*
X-3346637Y-63652400D02*
G01*
X-3176638Y-63652400D01*
X-3346637Y-63779400D02*
G01*
X-3176638Y-63779400D01*
X-3346637Y-63906400D02*
G01*
X-3176638Y-63906400D01*
X-3346637Y-64033400D02*
G01*
X-3176638Y-64033400D01*
X-2335133Y-62382400D02*
G01*
X-2165134Y-62382400D01*
X-2335133Y-62509400D02*
G01*
X-2165134Y-62509400D01*
X-2335133Y-62636400D02*
G01*
X-2165134Y-62636400D01*
X-2335133Y-62763400D02*
G01*
X-2165134Y-62763400D01*
X-2335133Y-62890400D02*
G01*
X-2165134Y-62890400D01*
X-2335133Y-63017400D02*
G01*
X-2165134Y-63017400D01*
X-2335133Y-63144400D02*
G01*
X-2165134Y-63144400D01*
X-2335133Y-63271400D02*
G01*
X-2165134Y-63271400D01*
X-2335133Y-63398400D02*
G01*
X-2165134Y-63398400D01*
X-2335133Y-63525400D02*
G01*
X-2165134Y-63525400D01*
X-2335133Y-63652400D02*
G01*
X-2165134Y-63652400D01*
X-2335133Y-63779400D02*
G01*
X-2165134Y-63779400D01*
X-2335133Y-63906400D02*
G01*
X-2165134Y-63906400D01*
X-2335133Y-64033400D02*
G01*
X-2165134Y-64033400D01*
G36*
X-7692644Y-63500761D02*
G01*
X-7692644Y-63349631D01*
X-7547355Y-63349631D01*
X-7547355Y-63500761D01*
G37*
G36*
X-7692644Y-63294768D02*
G01*
X-7692644Y-63143638D01*
X-7547355Y-63143638D01*
X-7547355Y-63294768D01*
G37*
G36*
X-7986013Y-63287402D02*
G01*
X-7986013Y-63163958D01*
X-7838186Y-63163958D01*
X-7838186Y-63287402D01*
G37*
G36*
X-7986013Y-63480441D02*
G01*
X-7986013Y-63356998D01*
X-7838186Y-63356998D01*
X-7838186Y-63480441D01*
G37*
D72*
G01*
X6765899Y-66657600D03*
G01*
X6765899Y-65117599D03*
G01*
X3825900Y-66137586D03*
G01*
X3825900Y-65637587D03*
G01*
X2586100Y-61687100D03*
G01*
X1046098Y-61687100D03*
G01*
X2066086Y-64627099D03*
G01*
X1566087Y-64627099D03*
G36*
X-5761989Y-59395106D02*
G01*
X-5761989Y-59221624D01*
X-5591810Y-59221624D01*
X-5591810Y-59395106D01*
G37*
G36*
X-5761989Y-59091575D02*
G01*
X-5761989Y-58918093D01*
X-5591810Y-58918093D01*
X-5591810Y-59091575D01*
G37*
G36*
X-7266431Y-63489331D02*
G01*
X-7266431Y-63354204D01*
X-7186168Y-63354204D01*
X-7186168Y-63489331D01*
G37*
G36*
X-7361428Y-63239396D02*
G01*
X-7361428Y-63104268D01*
X-7281163Y-63104268D01*
X-7281163Y-63239396D01*
G37*
G36*
X-7171436Y-63239396D02*
G01*
X-7171436Y-63104268D01*
X-7091171Y-63104268D01*
X-7091171Y-63239396D01*
G37*
G36*
X-7731252Y-56317388D02*
G01*
X-7731252Y-56207152D01*
X-7555992Y-56207152D01*
X-7555992Y-56317388D01*
G37*
G36*
X-7731252Y-56444388D02*
G01*
X-7731252Y-56334152D01*
X-7555992Y-56334152D01*
X-7555992Y-56444388D01*
G37*
G36*
X-7731252Y-56571388D02*
G01*
X-7731252Y-56461152D01*
X-7555992Y-56461152D01*
X-7555992Y-56571388D01*
G37*
G36*
X-7731252Y-56698388D02*
G01*
X-7731252Y-56588152D01*
X-7555992Y-56588152D01*
X-7555992Y-56698388D01*
G37*
G36*
X-7731252Y-56825388D02*
G01*
X-7731252Y-56715152D01*
X-7555992Y-56715152D01*
X-7555992Y-56825388D01*
G37*
G36*
X-7731252Y-56952388D02*
G01*
X-7731252Y-56842152D01*
X-7555992Y-56842152D01*
X-7555992Y-56952388D01*
G37*
G36*
X-7731252Y-57079388D02*
G01*
X-7731252Y-56969152D01*
X-7555992Y-56969152D01*
X-7555992Y-57079388D01*
G37*
G36*
X-7731252Y-57206388D02*
G01*
X-7731252Y-57096152D01*
X-7555992Y-57096152D01*
X-7555992Y-57206388D01*
G37*
G36*
X-7731252Y-57333388D02*
G01*
X-7731252Y-57223152D01*
X-7555992Y-57223152D01*
X-7555992Y-57333388D01*
G37*
G36*
X-7731252Y-57460388D02*
G01*
X-7731252Y-57350152D01*
X-7555992Y-57350152D01*
X-7555992Y-57460388D01*
G37*
G36*
X-7731252Y-57587388D02*
G01*
X-7731252Y-57477152D01*
X-7555992Y-57477152D01*
X-7555992Y-57587388D01*
G37*
G36*
X-7731252Y-57714388D02*
G01*
X-7731252Y-57604152D01*
X-7555992Y-57604152D01*
X-7555992Y-57714388D01*
G37*
G36*
X-7731252Y-57841388D02*
G01*
X-7731252Y-57731152D01*
X-7555992Y-57731152D01*
X-7555992Y-57841388D01*
G37*
G36*
X-7731252Y-57968388D02*
G01*
X-7731252Y-57858152D01*
X-7555992Y-57858152D01*
X-7555992Y-57968388D01*
G37*
G36*
X-7370318Y-58150759D02*
G01*
X-7370318Y-57975500D01*
X-7260081Y-57975500D01*
X-7260081Y-58150759D01*
G37*
G36*
X-7243318Y-58150759D02*
G01*
X-7243318Y-57975500D01*
X-7133081Y-57975500D01*
X-7133081Y-58150759D01*
G37*
G36*
X-7116318Y-58150759D02*
G01*
X-7116318Y-57975500D01*
X-7006081Y-57975500D01*
X-7006081Y-58150759D01*
G37*
G36*
X-6989318Y-58150759D02*
G01*
X-6989318Y-57975500D01*
X-6879081Y-57975500D01*
X-6879081Y-58150759D01*
G37*
G36*
X-6862318Y-58150759D02*
G01*
X-6862318Y-57975500D01*
X-6752081Y-57975500D01*
X-6752081Y-58150759D01*
G37*
G36*
X-6735318Y-58150759D02*
G01*
X-6735318Y-57975500D01*
X-6625081Y-57975500D01*
X-6625081Y-58150759D01*
G37*
G36*
X-6608318Y-58150759D02*
G01*
X-6608318Y-57975500D01*
X-6498081Y-57975500D01*
X-6498081Y-58150759D01*
G37*
G36*
X-6481318Y-58150759D02*
G01*
X-6481318Y-57975500D01*
X-6371081Y-57975500D01*
X-6371081Y-58150759D01*
G37*
G36*
X-6354318Y-58150759D02*
G01*
X-6354318Y-57975500D01*
X-6244081Y-57975500D01*
X-6244081Y-58150759D01*
G37*
G36*
X-6227318Y-58150759D02*
G01*
X-6227318Y-57975500D01*
X-6117081Y-57975500D01*
X-6117081Y-58150759D01*
G37*
G36*
X-5931154Y-57968388D02*
G01*
X-5931154Y-57858152D01*
X-5756147Y-57858152D01*
X-5756147Y-57968388D01*
G37*
G36*
X-5931154Y-57841388D02*
G01*
X-5931154Y-57731152D01*
X-5756147Y-57731152D01*
X-5756147Y-57841388D01*
G37*
G36*
X-5931154Y-57714388D02*
G01*
X-5931154Y-57604152D01*
X-5756147Y-57604152D01*
X-5756147Y-57714388D01*
G37*
G36*
X-5931154Y-57587388D02*
G01*
X-5931154Y-57477152D01*
X-5756147Y-57477152D01*
X-5756147Y-57587388D01*
G37*
G36*
X-5931154Y-57460388D02*
G01*
X-5931154Y-57350152D01*
X-5756147Y-57350152D01*
X-5756147Y-57460388D01*
G37*
G36*
X-5931154Y-57333388D02*
G01*
X-5931154Y-57223152D01*
X-5756147Y-57223152D01*
X-5756147Y-57333388D01*
G37*
G36*
X-5931154Y-57206388D02*
G01*
X-5931154Y-57096152D01*
X-5756147Y-57096152D01*
X-5756147Y-57206388D01*
G37*
G36*
X-5931154Y-57079388D02*
G01*
X-5931154Y-56969152D01*
X-5756147Y-56969152D01*
X-5756147Y-57079388D01*
G37*
G36*
X-5931154Y-56952388D02*
G01*
X-5931154Y-56842152D01*
X-5756147Y-56842152D01*
X-5756147Y-56952388D01*
G37*
G36*
X-5931154Y-56825388D02*
G01*
X-5931154Y-56715152D01*
X-5756147Y-56715152D01*
X-5756147Y-56825388D01*
G37*
G36*
X-5931154Y-56698388D02*
G01*
X-5931154Y-56588152D01*
X-5756147Y-56588152D01*
X-5756147Y-56698388D01*
G37*
G36*
X-5931154Y-56571388D02*
G01*
X-5931154Y-56461152D01*
X-5756147Y-56461152D01*
X-5756147Y-56571388D01*
G37*
G36*
X-5931154Y-56444388D02*
G01*
X-5931154Y-56334152D01*
X-5756147Y-56334152D01*
X-5756147Y-56444388D01*
G37*
G36*
X-5931154Y-56317388D02*
G01*
X-5931154Y-56207152D01*
X-5756147Y-56207152D01*
X-5756147Y-56317388D01*
G37*
G36*
X-7098792Y-57266840D02*
G01*
X-7098792Y-56756554D01*
X-6588505Y-56756554D01*
X-6588505Y-57266840D01*
G37*
D78*
G01*
X8026400Y-65824100D03*
G36*
X-5480304Y-60703206D02*
G01*
X-5480304Y-60492893D01*
X-5340095Y-60492893D01*
X-5340095Y-60703206D01*
G37*
G36*
X-5480304Y-59903106D02*
G01*
X-5480304Y-59693048D01*
X-5340095Y-59693048D01*
X-5340095Y-59903106D01*
G37*
G36*
X-9125204Y-57121806D02*
G01*
X-9125204Y-56911748D01*
X-8984995Y-56911748D01*
X-8984995Y-57121806D01*
G37*
G36*
X-9125204Y-57921906D02*
G01*
X-9125204Y-57711593D01*
X-8984995Y-57711593D01*
X-8984995Y-57921906D01*
G37*
G36*
X3189986Y-57397141D02*
G01*
X3189986Y-57273698D01*
X3337813Y-57273698D01*
X3337813Y-57397141D01*
G37*
G36*
X3189986Y-57204102D02*
G01*
X3189986Y-57080658D01*
X3337813Y-57080658D01*
X3337813Y-57204102D01*
G37*
G36*
X3202686Y-61334141D02*
G01*
X3202686Y-61210698D01*
X3350513Y-61210698D01*
X3350513Y-61334141D01*
G37*
G36*
X3202686Y-61141102D02*
G01*
X3202686Y-61017658D01*
X3350513Y-61017658D01*
X3350513Y-61141102D01*
G37*
G36*
X3189986Y-55555641D02*
G01*
X3189986Y-55432198D01*
X3337813Y-55432198D01*
X3337813Y-55555641D01*
G37*
G36*
X3189986Y-55362602D02*
G01*
X3189986Y-55239158D01*
X3337813Y-55239158D01*
X3337813Y-55362602D01*
G37*
G36*
X3202686Y-59403741D02*
G01*
X3202686Y-59280298D01*
X3350513Y-59280298D01*
X3350513Y-59403741D01*
G37*
G36*
X3202686Y-59210702D02*
G01*
X3202686Y-59087258D01*
X3350513Y-59087258D01*
X3350513Y-59210702D01*
G37*
D80*
G01*
X-9114612Y-58527594D03*
G01*
X-9114612Y-59027593D03*
G01*
X-8614613Y-59277605D03*
G01*
X-8614613Y-58777606D03*
G01*
X-9101912Y-59810294D03*
G01*
X-9101912Y-60310293D03*
G01*
X-8601913Y-60560305D03*
G01*
X-8601913Y-60060306D03*
G36*
X3303524Y-58093609D02*
G01*
X3303524Y-57933590D01*
X3513581Y-57933590D01*
X3513581Y-58093609D01*
G37*
G36*
X3303524Y-58347609D02*
G01*
X3303524Y-58187590D01*
X3513581Y-58187590D01*
X3513581Y-58347609D01*
G37*
G36*
X4233418Y-58347609D02*
G01*
X4233418Y-58187590D01*
X4443475Y-58187590D01*
X4443475Y-58347609D01*
G37*
G36*
X4233418Y-58093609D02*
G01*
X4233418Y-57933590D01*
X4443475Y-57933590D01*
X4443475Y-58093609D01*
G37*
G36*
X3303524Y-62017909D02*
G01*
X3303524Y-61857890D01*
X3513581Y-61857890D01*
X3513581Y-62017909D01*
G37*
G36*
X3303524Y-62271909D02*
G01*
X3303524Y-62111890D01*
X3513581Y-62111890D01*
X3513581Y-62271909D01*
G37*
G36*
X4233418Y-62271909D02*
G01*
X4233418Y-62111890D01*
X4443475Y-62111890D01*
X4443475Y-62271909D01*
G37*
G36*
X4233418Y-62017909D02*
G01*
X4233418Y-61857890D01*
X4443475Y-61857890D01*
X4443475Y-62017909D01*
G37*
G36*
X3303524Y-63910209D02*
G01*
X3303524Y-63750190D01*
X3513581Y-63750190D01*
X3513581Y-63910209D01*
G37*
G36*
X3303524Y-64164209D02*
G01*
X3303524Y-64004190D01*
X3513581Y-64004190D01*
X3513581Y-64164209D01*
G37*
G36*
X4233418Y-64164209D02*
G01*
X4233418Y-64004190D01*
X4443475Y-64004190D01*
X4443475Y-64164209D01*
G37*
G36*
X4233418Y-63910209D02*
G01*
X4233418Y-63750190D01*
X4443475Y-63750190D01*
X4443475Y-63910209D01*
G37*
G36*
X3290824Y-60024009D02*
G01*
X3290824Y-59863990D01*
X3500881Y-59863990D01*
X3500881Y-60024009D01*
G37*
G36*
X3290824Y-60278009D02*
G01*
X3290824Y-60117990D01*
X3500881Y-60117990D01*
X3500881Y-60278009D01*
G37*
G36*
X4220718Y-60278009D02*
G01*
X4220718Y-60117990D01*
X4430775Y-60117990D01*
X4430775Y-60278009D01*
G37*
G36*
X4220718Y-60024009D02*
G01*
X4220718Y-59863990D01*
X4430775Y-59863990D01*
X4430775Y-60024009D01*
G37*
G36*
X3316224Y-56125109D02*
G01*
X3316224Y-55965090D01*
X3526281Y-55965090D01*
X3526281Y-56125109D01*
G37*
G36*
X3316224Y-56379109D02*
G01*
X3316224Y-56219090D01*
X3526281Y-56219090D01*
X3526281Y-56379109D01*
G37*
G36*
X4246118Y-56379109D02*
G01*
X4246118Y-56219090D01*
X4456175Y-56219090D01*
X4456175Y-56379109D01*
G37*
G36*
X4246118Y-56125109D02*
G01*
X4246118Y-55965090D01*
X4456175Y-55965090D01*
X4456175Y-56125109D01*
G37*
G36*
X-6500113Y-60038741D02*
G01*
X-6500113Y-59915298D01*
X-6352286Y-59915298D01*
X-6352286Y-60038741D01*
G37*
G36*
X-6500113Y-59845702D02*
G01*
X-6500113Y-59722258D01*
X-6352286Y-59722258D01*
X-6352286Y-59845702D01*
G37*
G36*
X-6500113Y-60826141D02*
G01*
X-6500113Y-60702698D01*
X-6352286Y-60702698D01*
X-6352286Y-60826141D01*
G37*
G36*
X-6500113Y-60633102D02*
G01*
X-6500113Y-60509658D01*
X-6352286Y-60509658D01*
X-6352286Y-60633102D01*
G37*
G36*
X-6942581Y-60074809D02*
G01*
X-6942581Y-59914790D01*
X-6732523Y-59914790D01*
X-6732523Y-60074809D01*
G37*
G36*
X-6942581Y-59820809D02*
G01*
X-6942581Y-59660790D01*
X-6732523Y-59660790D01*
X-6732523Y-59820809D01*
G37*
G36*
X-7872476Y-59820809D02*
G01*
X-7872476Y-59660790D01*
X-7662418Y-59660790D01*
X-7662418Y-59820809D01*
G37*
G36*
X-7872476Y-60074809D02*
G01*
X-7872476Y-59914790D01*
X-7662418Y-59914790D01*
X-7662418Y-60074809D01*
G37*
G36*
X-6955281Y-60849509D02*
G01*
X-6955281Y-60689490D01*
X-6745223Y-60689490D01*
X-6745223Y-60849509D01*
G37*
G36*
X-6955281Y-60595509D02*
G01*
X-6955281Y-60435490D01*
X-6745223Y-60435490D01*
X-6745223Y-60595509D01*
G37*
G36*
X-7885176Y-60595509D02*
G01*
X-7885176Y-60435490D01*
X-7675118Y-60435490D01*
X-7675118Y-60595509D01*
G37*
G36*
X-7885176Y-60849509D02*
G01*
X-7885176Y-60689490D01*
X-7675118Y-60689490D01*
X-7675118Y-60849509D01*
G37*
G01*
X8289112Y-63156312D03*
G01*
X8289112Y-62656313D03*
G01*
X7789113Y-62406301D03*
G01*
X7789113Y-62906300D03*
G01*
X8289112Y-58416316D03*
G01*
X8289112Y-57916318D03*
G01*
X7789113Y-57666305D03*
G01*
X7789113Y-58166304D03*
G01*
X8289112Y-64736319D03*
G01*
X8289112Y-64236320D03*
G01*
X7789113Y-63986308D03*
G01*
X7789113Y-64486307D03*
G01*
X8289112Y-56836309D03*
G01*
X8289112Y-56336311D03*
G01*
X7789113Y-56086298D03*
G01*
X7789113Y-56586297D03*
G01*
X8289112Y-59996298D03*
G01*
X8289112Y-59496299D03*
G01*
X7789113Y-59246287D03*
G01*
X7789113Y-59746286D03*
G01*
X8289112Y-61576305D03*
G01*
X8289112Y-61076306D03*
G01*
X7789113Y-60826294D03*
G01*
X7789113Y-61326293D03*
G36*
X-9384792Y-61570361D02*
G01*
X-9384792Y-61360050D01*
X-9174734Y-61360050D01*
X-9174734Y-61570361D01*
G37*
D72*
G01*
X-8779713Y-61115193D03*
G36*
X-9384792Y-62535561D02*
G01*
X-9384792Y-62325250D01*
X-9174734Y-62325250D01*
X-9174734Y-62535561D01*
G37*
G01*
X-8779713Y-62080393D03*
G36*
X-5223002Y-57265061D02*
G01*
X-5223002Y-57113931D01*
X-5077713Y-57113931D01*
X-5077713Y-57265061D01*
G37*
G36*
X-5223002Y-57059068D02*
G01*
X-5223002Y-56907938D01*
X-5077713Y-56907938D01*
X-5077713Y-57059068D01*
G37*
D80*
G01*
X2457094Y-66175686D03*
G01*
X2957093Y-66175686D03*
G01*
X3207105Y-65675687D03*
G01*
X2707106Y-65675687D03*
G36*
X-7985760Y-63989204D02*
G01*
X-7985760Y-63838074D01*
X-7840726Y-63838074D01*
X-7840726Y-63989204D01*
G37*
G36*
X-7985760Y-64195198D02*
G01*
X-7985760Y-64044068D01*
X-7840726Y-64044068D01*
X-7840726Y-64195198D01*
G37*
G36*
X-6969760Y-64195198D02*
G01*
X-6969760Y-64044068D01*
X-6824726Y-64044068D01*
X-6824726Y-64195198D01*
G37*
G36*
X-6969760Y-63989204D02*
G01*
X-6969760Y-63838074D01*
X-6824726Y-63838074D01*
X-6824726Y-63989204D01*
G37*
D70*
G01*
X-7232726Y-64565402D03*
G01*
X-7232726Y-64771397D03*
G36*
X-8505444Y-57821068D02*
G01*
X-8505444Y-57669938D01*
X-8360155Y-57669938D01*
X-8360155Y-57821068D01*
G37*
G36*
X-8505444Y-58027061D02*
G01*
X-8505444Y-57875931D01*
X-8360155Y-57875931D01*
X-8360155Y-58027061D01*
G37*
G36*
X-8505444Y-57061861D02*
G01*
X-8505444Y-56910731D01*
X-8360155Y-56910731D01*
X-8360155Y-57061861D01*
G37*
G36*
X-8505444Y-56855868D02*
G01*
X-8505444Y-56704738D01*
X-8360155Y-56704738D01*
X-8360155Y-56855868D01*
G37*
G36*
X-3959605Y-58943240D02*
G01*
X-3959605Y-58792109D01*
X-3814571Y-58792109D01*
X-3814571Y-58943240D01*
G37*
G36*
X-3959605Y-59149234D02*
G01*
X-3959605Y-58998104D01*
X-3814571Y-58998104D01*
X-3814571Y-59149234D01*
G37*
G36*
X-4225544Y-57059068D02*
G01*
X-4225544Y-56907938D01*
X-4080255Y-56907938D01*
X-4080255Y-57059068D01*
G37*
G36*
X-4225544Y-57265061D02*
G01*
X-4225544Y-57113931D01*
X-4080255Y-57113931D01*
X-4080255Y-57265061D01*
G37*
G36*
X-3501897Y-59149234D02*
G01*
X-3501897Y-58998104D01*
X-3356863Y-58998104D01*
X-3356863Y-59149234D01*
G37*
G36*
X-3501897Y-58943240D02*
G01*
X-3501897Y-58792109D01*
X-3356863Y-58792109D01*
X-3356863Y-58943240D01*
G37*
G36*
X-1348486Y-59106561D02*
G01*
X-1348486Y-58955431D01*
X-1203452Y-58955431D01*
X-1203452Y-59106561D01*
G37*
G36*
X-1348486Y-58900568D02*
G01*
X-1348486Y-58749438D01*
X-1203452Y-58749438D01*
X-1203452Y-58900568D01*
G37*
G36*
X454913Y-59106561D02*
G01*
X454913Y-58955431D01*
X599947Y-58955431D01*
X599947Y-59106561D01*
G37*
G36*
X454913Y-58900568D02*
G01*
X454913Y-58749438D01*
X599947Y-58749438D01*
X599947Y-58900568D01*
G37*
G36*
X-6710426Y-63293243D02*
G01*
X-6710426Y-63142114D01*
X-6565137Y-63142114D01*
X-6565137Y-63293243D01*
G37*
G36*
X-6710426Y-63499238D02*
G01*
X-6710426Y-63348108D01*
X-6565137Y-63348108D01*
X-6565137Y-63499238D01*
G37*
G36*
X-7657084Y-64154558D02*
G01*
X-7657084Y-64031114D01*
X-7509255Y-64031114D01*
X-7509255Y-64154558D01*
G37*
G36*
X-7657084Y-63961264D02*
G01*
X-7657084Y-63838074D01*
X-7509255Y-63838074D01*
X-7509255Y-63961264D01*
G37*
G36*
X-6208013Y-63458598D02*
G01*
X-6208013Y-63335154D01*
X-6060186Y-63335154D01*
X-6060186Y-63458598D01*
G37*
G36*
X-6208013Y-63265558D02*
G01*
X-6208013Y-63142114D01*
X-6060186Y-63142114D01*
X-6060186Y-63265558D01*
G37*
G36*
X-4569713Y-64697102D02*
G01*
X-4569713Y-64573658D01*
X-4421886Y-64573658D01*
X-4421886Y-64697102D01*
G37*
G36*
X-4569713Y-64890141D02*
G01*
X-4569713Y-64766698D01*
X-4421886Y-64766698D01*
X-4421886Y-64890141D01*
G37*
G36*
X-5166613Y-58055002D02*
G01*
X-5166613Y-57931558D01*
X-5018786Y-57931558D01*
X-5018786Y-58055002D01*
G37*
G36*
X-5166613Y-58248041D02*
G01*
X-5166613Y-58124598D01*
X-5018786Y-58124598D01*
X-5018786Y-58248041D01*
G37*
G36*
X-5915913Y-60368941D02*
G01*
X-5915913Y-60245498D01*
X-5768086Y-60245498D01*
X-5768086Y-60368941D01*
G37*
G36*
X-5915913Y-60175902D02*
G01*
X-5915913Y-60052458D01*
X-5768086Y-60052458D01*
X-5768086Y-60175902D01*
G37*
G36*
X-8506713Y-57331102D02*
G01*
X-8506713Y-57207658D01*
X-8358886Y-57207658D01*
X-8358886Y-57331102D01*
G37*
G36*
X-8506713Y-57524141D02*
G01*
X-8506713Y-57400698D01*
X-8358886Y-57400698D01*
X-8358886Y-57524141D01*
G37*
G36*
X-4798313Y-58918602D02*
G01*
X-4798313Y-58795158D01*
X-4650486Y-58795158D01*
X-4650486Y-58918602D01*
G37*
G36*
X-4798313Y-59111641D02*
G01*
X-4798313Y-58988198D01*
X-4650486Y-58988198D01*
X-4650486Y-59111641D01*
G37*
G36*
X-5128513Y-59098941D02*
G01*
X-5128513Y-58975498D01*
X-4980686Y-58975498D01*
X-4980686Y-59098941D01*
G37*
G36*
X-5128513Y-58905902D02*
G01*
X-5128513Y-58782458D01*
X-4980686Y-58782458D01*
X-4980686Y-58905902D01*
G37*
G36*
X-7640065Y-64653668D02*
G01*
X-7640065Y-64530224D01*
X-7492237Y-64530224D01*
X-7492237Y-64653668D01*
G37*
G36*
X-7640065Y-64846961D02*
G01*
X-7640065Y-64723518D01*
X-7492237Y-64723518D01*
X-7492237Y-64846961D01*
G37*
G36*
X-6973315Y-64653668D02*
G01*
X-6973315Y-64530224D01*
X-6825487Y-64530224D01*
X-6825487Y-64653668D01*
G37*
G36*
X-6973315Y-64846961D02*
G01*
X-6973315Y-64723518D01*
X-6825487Y-64723518D01*
X-6825487Y-64846961D01*
G37*
G36*
X-7314184Y-63961264D02*
G01*
X-7314184Y-63838074D01*
X-7166355Y-63838074D01*
X-7166355Y-63961264D01*
G37*
G36*
X-7314184Y-64154558D02*
G01*
X-7314184Y-64031114D01*
X-7166355Y-64031114D01*
X-7166355Y-64154558D01*
G37*
G36*
X-5710428Y-63293243D02*
G01*
X-5710428Y-63142114D01*
X-5565139Y-63142114D01*
X-5565139Y-63293243D01*
G37*
G36*
X-5710428Y-63499238D02*
G01*
X-5710428Y-63348108D01*
X-5565139Y-63348108D01*
X-5565139Y-63499238D01*
G37*
G36*
X1857755Y-57135268D02*
G01*
X1857755Y-56984138D01*
X2003043Y-56984138D01*
X2003043Y-57135268D01*
G37*
G36*
X1857755Y-57341261D02*
G01*
X1857755Y-57190131D01*
X2003043Y-57190131D01*
X2003043Y-57341261D01*
G37*
G36*
X28955Y-57046368D02*
G01*
X28955Y-56895238D01*
X174244Y-56895238D01*
X174244Y-57046368D01*
G37*
G36*
X28955Y-57252361D02*
G01*
X28955Y-57101231D01*
X174244Y-57101231D01*
X174244Y-57252361D01*
G37*
G36*
X-1698244Y-57046368D02*
G01*
X-1698244Y-56895238D01*
X-1552955Y-56895238D01*
X-1552955Y-57046368D01*
G37*
G36*
X-1698244Y-57252361D02*
G01*
X-1698244Y-57101231D01*
X-1552955Y-57101231D01*
X-1552955Y-57252361D01*
G37*
G36*
X-1685544Y-63627761D02*
G01*
X-1685544Y-63476631D01*
X-1540255Y-63476631D01*
X-1540255Y-63627761D01*
G37*
G36*
X-1685544Y-63421768D02*
G01*
X-1685544Y-63270638D01*
X-1540255Y-63270638D01*
X-1540255Y-63421768D01*
G37*
G36*
X-3742944Y-63475361D02*
G01*
X-3742944Y-63324231D01*
X-3597655Y-63324231D01*
X-3597655Y-63475361D01*
G37*
G36*
X-3742944Y-63269368D02*
G01*
X-3742944Y-63118238D01*
X-3597655Y-63118238D01*
X-3597655Y-63269368D01*
G37*
G36*
X-7972044Y-64640968D02*
G01*
X-7972044Y-64489838D01*
X-7826755Y-64489838D01*
X-7826755Y-64640968D01*
G37*
G36*
X-7972044Y-64846961D02*
G01*
X-7972044Y-64695831D01*
X-7826755Y-64695831D01*
X-7826755Y-64846961D01*
G37*
G36*
X3507993Y-55357522D02*
G01*
X3507993Y-55168800D01*
X3680206Y-55168800D01*
X3680206Y-55357522D01*
G37*
G36*
X3507993Y-55626000D02*
G01*
X3507993Y-55437277D01*
X3680206Y-55437277D01*
X3680206Y-55626000D01*
G37*
G36*
X3495293Y-59192922D02*
G01*
X3495293Y-59004200D01*
X3667506Y-59004200D01*
X3667506Y-59192922D01*
G37*
G36*
X3495293Y-59461400D02*
G01*
X3495293Y-59272677D01*
X3667506Y-59272677D01*
X3667506Y-59461400D01*
G37*
G36*
X3495293Y-61136022D02*
G01*
X3495293Y-60947300D01*
X3667506Y-60947300D01*
X3667506Y-61136022D01*
G37*
G36*
X3495293Y-61404500D02*
G01*
X3495293Y-61215777D01*
X3667506Y-61215777D01*
X3667506Y-61404500D01*
G37*
G36*
X3495293Y-57199022D02*
G01*
X3495293Y-57010300D01*
X3667506Y-57010300D01*
X3667506Y-57199022D01*
G37*
G36*
X3495293Y-57467500D02*
G01*
X3495293Y-57278777D01*
X3667506Y-57278777D01*
X3667506Y-57467500D01*
G37*
G36*
X3495293Y-63079122D02*
G01*
X3495293Y-62890400D01*
X3667506Y-62890400D01*
X3667506Y-63079122D01*
G37*
G36*
X3495293Y-63347600D02*
G01*
X3495293Y-63158877D01*
X3667506Y-63158877D01*
X3667506Y-63347600D01*
G37*
G36*
X-6106413Y-59172602D02*
G01*
X-6106413Y-59049158D01*
X-5958586Y-59049158D01*
X-5958586Y-59172602D01*
G37*
G36*
X-6106413Y-59365641D02*
G01*
X-6106413Y-59242198D01*
X-5958586Y-59242198D01*
X-5958586Y-59365641D01*
G37*
G36*
X3189986Y-63340741D02*
G01*
X3189986Y-63217298D01*
X3337813Y-63217298D01*
X3337813Y-63340741D01*
G37*
G36*
X3189986Y-63147702D02*
G01*
X3189986Y-63024258D01*
X3337813Y-63024258D01*
X3337813Y-63147702D01*
G37*
G36*
X-233679Y-64765427D02*
G01*
X-233679Y-64675258D01*
X-158495Y-64675258D01*
X-158495Y-64765427D01*
G37*
G36*
X-233679Y-64585341D02*
G01*
X-233679Y-64495172D01*
X-158495Y-64495172D01*
X-158495Y-64585341D01*
G37*
G36*
X-146304Y-64765427D02*
G01*
X-146304Y-64675258D01*
X-86105Y-64675258D01*
X-86105Y-64765427D01*
G37*
G36*
X-146304Y-64585341D02*
G01*
X-146304Y-64495172D01*
X-86105Y-64495172D01*
X-86105Y-64585341D01*
G37*
G36*
X-66294Y-64765427D02*
G01*
X-66294Y-64675258D01*
X-6095Y-64675258D01*
X-6095Y-64765427D01*
G37*
G36*
X-66294Y-64585341D02*
G01*
X-66294Y-64495172D01*
X-6095Y-64495172D01*
X-6095Y-64585341D01*
G37*
G36*
X6095Y-64765427D02*
G01*
X6095Y-64675258D01*
X81279Y-64675258D01*
X81279Y-64765427D01*
G37*
G36*
X6095Y-64585341D02*
G01*
X6095Y-64495172D01*
X81279Y-64495172D01*
X81279Y-64585341D01*
G37*
G36*
X-1567942Y-64063879D02*
G01*
X-1567942Y-63988696D01*
X-1477771Y-63988696D01*
X-1477771Y-64063879D01*
G37*
G36*
X-1748028Y-64063879D02*
G01*
X-1748028Y-63988696D01*
X-1657857Y-63988696D01*
X-1657857Y-64063879D01*
G37*
G36*
X-1567942Y-63976504D02*
G01*
X-1567942Y-63916306D01*
X-1477771Y-63916306D01*
X-1477771Y-63976504D01*
G37*
G36*
X-1748028Y-63976504D02*
G01*
X-1748028Y-63916306D01*
X-1657857Y-63916306D01*
X-1657857Y-63976504D01*
G37*
G36*
X-1567942Y-63896493D02*
G01*
X-1567942Y-63836296D01*
X-1477771Y-63836296D01*
X-1477771Y-63896493D01*
G37*
G36*
X-1748028Y-63896493D02*
G01*
X-1748028Y-63836296D01*
X-1657857Y-63836296D01*
X-1657857Y-63896493D01*
G37*
G36*
X-1567942Y-63824104D02*
G01*
X-1567942Y-63748920D01*
X-1477771Y-63748920D01*
X-1477771Y-63824104D01*
G37*
G36*
X-1748028Y-63824104D02*
G01*
X-1748028Y-63748920D01*
X-1657857Y-63748920D01*
X-1657857Y-63824104D01*
G37*
G36*
X3888486Y-59223402D02*
G01*
X3888486Y-59099958D01*
X4036313Y-59099958D01*
X4036313Y-59223402D01*
G37*
G36*
X3888486Y-59416441D02*
G01*
X3888486Y-59292998D01*
X4036313Y-59292998D01*
X4036313Y-59416441D01*
G37*
G36*
X3888486Y-57280302D02*
G01*
X3888486Y-57156858D01*
X4036313Y-57156858D01*
X4036313Y-57280302D01*
G37*
G36*
X3888486Y-57473341D02*
G01*
X3888486Y-57349898D01*
X4036313Y-57349898D01*
X4036313Y-57473341D01*
G37*
G36*
X3888486Y-61153802D02*
G01*
X3888486Y-61030358D01*
X4036313Y-61030358D01*
X4036313Y-61153802D01*
G37*
G36*
X3888486Y-61346841D02*
G01*
X3888486Y-61223398D01*
X4036313Y-61223398D01*
X4036313Y-61346841D01*
G37*
G36*
X3875786Y-55362602D02*
G01*
X3875786Y-55239158D01*
X4023613Y-55239158D01*
X4023613Y-55362602D01*
G37*
G36*
X3875786Y-55555641D02*
G01*
X3875786Y-55432198D01*
X4023613Y-55432198D01*
X4023613Y-55555641D01*
G37*
G36*
X3888486Y-63147702D02*
G01*
X3888486Y-63024258D01*
X4036313Y-63024258D01*
X4036313Y-63147702D01*
G37*
G36*
X3888486Y-63340741D02*
G01*
X3888486Y-63217298D01*
X4036313Y-63217298D01*
X4036313Y-63340741D01*
G37*
G36*
X-2500376Y-57069227D02*
G01*
X-2500376Y-56979058D01*
X-2425192Y-56979058D01*
X-2425192Y-57069227D01*
G37*
G36*
X-2500376Y-56889141D02*
G01*
X-2500376Y-56798972D01*
X-2425192Y-56798972D01*
X-2425192Y-56889141D01*
G37*
G36*
X-2412745Y-57069227D02*
G01*
X-2412745Y-56979058D01*
X-2352547Y-56979058D01*
X-2352547Y-57069227D01*
G37*
G36*
X-2412745Y-56889141D02*
G01*
X-2412745Y-56798972D01*
X-2352547Y-56798972D01*
X-2352547Y-56889141D01*
G37*
G36*
X-2332736Y-57069227D02*
G01*
X-2332736Y-56979058D01*
X-2272537Y-56979058D01*
X-2272537Y-57069227D01*
G37*
G36*
X-2332736Y-56889141D02*
G01*
X-2332736Y-56798972D01*
X-2272537Y-56798972D01*
X-2272537Y-56889141D01*
G37*
G36*
X-2260345Y-57069227D02*
G01*
X-2260345Y-56979058D01*
X-2185162Y-56979058D01*
X-2185162Y-57069227D01*
G37*
G36*
X-2260345Y-56889141D02*
G01*
X-2260345Y-56798972D01*
X-2185162Y-56798972D01*
X-2185162Y-56889141D01*
G37*
G36*
X-722376Y-57069227D02*
G01*
X-722376Y-56979058D01*
X-647192Y-56979058D01*
X-647192Y-57069227D01*
G37*
G36*
X-722376Y-56889141D02*
G01*
X-722376Y-56798972D01*
X-647192Y-56798972D01*
X-647192Y-56889141D01*
G37*
G36*
X-634745Y-57069227D02*
G01*
X-634745Y-56979058D01*
X-574547Y-56979058D01*
X-574547Y-57069227D01*
G37*
G36*
X-634745Y-56889141D02*
G01*
X-634745Y-56798972D01*
X-574547Y-56798972D01*
X-574547Y-56889141D01*
G37*
G36*
X-554736Y-57069227D02*
G01*
X-554736Y-56979058D01*
X-494537Y-56979058D01*
X-494537Y-57069227D01*
G37*
G36*
X-554736Y-56889141D02*
G01*
X-554736Y-56798972D01*
X-494537Y-56798972D01*
X-494537Y-56889141D01*
G37*
G36*
X-482345Y-57069227D02*
G01*
X-482345Y-56979058D01*
X-407162Y-56979058D01*
X-407162Y-57069227D01*
G37*
G36*
X-482345Y-56889141D02*
G01*
X-482345Y-56798972D01*
X-407162Y-56798972D01*
X-407162Y-56889141D01*
G37*
G36*
X1049020Y-57069227D02*
G01*
X1049020Y-56979058D01*
X1124204Y-56979058D01*
X1124204Y-57069227D01*
G37*
G36*
X1049020Y-56889141D02*
G01*
X1049020Y-56798972D01*
X1124204Y-56798972D01*
X1124204Y-56889141D01*
G37*
G36*
X1136395Y-57069227D02*
G01*
X1136395Y-56979058D01*
X1196594Y-56979058D01*
X1196594Y-57069227D01*
G37*
G36*
X1136395Y-56889141D02*
G01*
X1136395Y-56798972D01*
X1196594Y-56798972D01*
X1196594Y-56889141D01*
G37*
G36*
X1216405Y-57069227D02*
G01*
X1216405Y-56979058D01*
X1276604Y-56979058D01*
X1276604Y-57069227D01*
G37*
G36*
X1216405Y-56889141D02*
G01*
X1216405Y-56798972D01*
X1276604Y-56798972D01*
X1276604Y-56889141D01*
G37*
G36*
X1288795Y-57069227D02*
G01*
X1288795Y-56979058D01*
X1363979Y-56979058D01*
X1363979Y-57069227D01*
G37*
G36*
X1288795Y-56889141D02*
G01*
X1288795Y-56798972D01*
X1363979Y-56798972D01*
X1363979Y-56889141D01*
G37*
G36*
X-1059179Y-64765427D02*
G01*
X-1059179Y-64675258D01*
X-983995Y-64675258D01*
X-983995Y-64765427D01*
G37*
G36*
X-1059179Y-64585341D02*
G01*
X-1059179Y-64495172D01*
X-983995Y-64495172D01*
X-983995Y-64585341D01*
G37*
G36*
X-971804Y-64765427D02*
G01*
X-971804Y-64675258D01*
X-911605Y-64675258D01*
X-911605Y-64765427D01*
G37*
G36*
X-971804Y-64585341D02*
G01*
X-971804Y-64495172D01*
X-911605Y-64495172D01*
X-911605Y-64585341D01*
G37*
G36*
X-891794Y-64765427D02*
G01*
X-891794Y-64675258D01*
X-831595Y-64675258D01*
X-831595Y-64765427D01*
G37*
G36*
X-891794Y-64585341D02*
G01*
X-891794Y-64495172D01*
X-831595Y-64495172D01*
X-831595Y-64585341D01*
G37*
G36*
X-819404Y-64765427D02*
G01*
X-819404Y-64675258D01*
X-744220Y-64675258D01*
X-744220Y-64765427D01*
G37*
G36*
X-819404Y-64585341D02*
G01*
X-819404Y-64495172D01*
X-744220Y-64495172D01*
X-744220Y-64585341D01*
G37*
G36*
X7404100Y-65884298D02*
G01*
X7396734Y-65883790D01*
X7389622Y-65882520D01*
X7382763Y-65880488D01*
X7376159Y-65877440D01*
X7369809Y-65873629D01*
X7364222Y-65869058D01*
X7359141Y-65863977D01*
X7354570Y-65858390D01*
X7350759Y-65852040D01*
X7347711Y-65845436D01*
X7345679Y-65838577D01*
X7344409Y-65831466D01*
X7343902Y-65824100D01*
X7344409Y-65816734D01*
X7345679Y-65809622D01*
X7347711Y-65802764D01*
X7350759Y-65796159D01*
X7354570Y-65789809D01*
X7359141Y-65784222D01*
X7364222Y-65779141D01*
X7369809Y-65774570D01*
X7376159Y-65770759D01*
X7382763Y-65767711D01*
X7389622Y-65765679D01*
X7396734Y-65764409D01*
X7404100Y-65763902D01*
X7411465Y-65764409D01*
X7418577Y-65765679D01*
X7425436Y-65767711D01*
X7432040Y-65770759D01*
X7438390Y-65774570D01*
X7443977Y-65779141D01*
X7449058Y-65784222D01*
X7453629Y-65789809D01*
X7457440Y-65796159D01*
X7460488Y-65802764D01*
X7462520Y-65809622D01*
X7463790Y-65816734D01*
X7464297Y-65824100D01*
X7463790Y-65831466D01*
X7462520Y-65838577D01*
X7460488Y-65845436D01*
X7457440Y-65852040D01*
X7453629Y-65858390D01*
X7449058Y-65863977D01*
X7443977Y-65869058D01*
X7438390Y-65873629D01*
X7432040Y-65877440D01*
X7425436Y-65880488D01*
X7418577Y-65882520D01*
X7411465Y-65883790D01*
G37*
G36*
X-5435600Y-55368698D02*
G01*
X-5442965Y-55368190D01*
X-5450078Y-55366920D01*
X-5456936Y-55364888D01*
X-5463539Y-55361840D01*
X-5469889Y-55358029D01*
X-5475478Y-55353458D01*
X-5480557Y-55348377D01*
X-5485129Y-55342790D01*
X-5488939Y-55336440D01*
X-5491987Y-55329836D01*
X-5494020Y-55322977D01*
X-5495289Y-55315866D01*
X-5495797Y-55308500D01*
X-5495289Y-55301134D01*
X-5494020Y-55294022D01*
X-5491987Y-55287164D01*
X-5488939Y-55280559D01*
X-5485129Y-55274209D01*
X-5480557Y-55268622D01*
X-5475478Y-55263541D01*
X-5469889Y-55258970D01*
X-5463539Y-55255159D01*
X-5456936Y-55252111D01*
X-5450078Y-55250079D01*
X-5442965Y-55248809D01*
X-5435600Y-55248302D01*
X-5428234Y-55248809D01*
X-5421121Y-55250079D01*
X-5414263Y-55252111D01*
X-5407660Y-55255159D01*
X-5401310Y-55258970D01*
X-5395721Y-55263541D01*
X-5390642Y-55268622D01*
X-5386070Y-55274209D01*
X-5382260Y-55280559D01*
X-5379212Y-55287164D01*
X-5377179Y-55294022D01*
X-5375910Y-55301134D01*
X-5375402Y-55308500D01*
X-5375910Y-55315866D01*
X-5377179Y-55322977D01*
X-5379212Y-55329836D01*
X-5382260Y-55336440D01*
X-5386070Y-55342790D01*
X-5390642Y-55348377D01*
X-5395721Y-55353458D01*
X-5401310Y-55358029D01*
X-5407660Y-55361840D01*
X-5414263Y-55364888D01*
X-5421121Y-55366920D01*
X-5428234Y-55368190D01*
G37*
G36*
X1752600Y-59470798D02*
G01*
X1745234Y-59470290D01*
X1738121Y-59469020D01*
X1731263Y-59466988D01*
X1724660Y-59463940D01*
X1718310Y-59460129D01*
X1712721Y-59455558D01*
X1707642Y-59450477D01*
X1703070Y-59444890D01*
X1699260Y-59438540D01*
X1696212Y-59431936D01*
X1694179Y-59425077D01*
X1692910Y-59417966D01*
X1692402Y-59410600D01*
X1692910Y-59403234D01*
X1694179Y-59396122D01*
X1696212Y-59389264D01*
X1699260Y-59382659D01*
X1703070Y-59376309D01*
X1707642Y-59370722D01*
X1712721Y-59365641D01*
X1718310Y-59361070D01*
X1724660Y-59357259D01*
X1731263Y-59354211D01*
X1738121Y-59352179D01*
X1745234Y-59350909D01*
X1752600Y-59350402D01*
X1759965Y-59350909D01*
X1767078Y-59352179D01*
X1773936Y-59354211D01*
X1780539Y-59357259D01*
X1786889Y-59361070D01*
X1792478Y-59365641D01*
X1797557Y-59370722D01*
X1802129Y-59376309D01*
X1805939Y-59382659D01*
X1808987Y-59389264D01*
X1811020Y-59396122D01*
X1812289Y-59403234D01*
X1812797Y-59410600D01*
X1812289Y-59417966D01*
X1811020Y-59425077D01*
X1808987Y-59431936D01*
X1805939Y-59438540D01*
X1802129Y-59444890D01*
X1797557Y-59450477D01*
X1792478Y-59455558D01*
X1786889Y-59460129D01*
X1780539Y-59463940D01*
X1773936Y-59466988D01*
X1767078Y-59469020D01*
X1759965Y-59470290D01*
G37*
D78*
G01*
X-9182100Y-66395600D03*
G01*
X8039100Y-55410100D03*
G01*
X558800Y-66090800D03*
G01*
X-8445500Y-55880000D03*
G01*
X38100Y-60998100D03*
D88*
G01*
X-3886200Y-59791600D03*
G01*
X-3886200Y-60299600D03*
G01*
X-4495800Y-63474600D03*
G01*
X-4495800Y-63982600D03*
G36*
X-4675631Y-58006996D02*
G01*
X-4675631Y-57871868D01*
X-4595368Y-57871868D01*
X-4595368Y-58006996D01*
G37*
G36*
X-4580636Y-58256931D02*
G01*
X-4580636Y-58121804D01*
X-4500371Y-58121804D01*
X-4500371Y-58256931D01*
G37*
G36*
X-4770628Y-58256931D02*
G01*
X-4770628Y-58121804D01*
X-4690363Y-58121804D01*
X-4690363Y-58256931D01*
G37*
G36*
X-3634231Y-56990996D02*
G01*
X-3634231Y-56855868D01*
X-3553968Y-56855868D01*
X-3553968Y-56990996D01*
G37*
G36*
X-3539236Y-57240931D02*
G01*
X-3539236Y-57105804D01*
X-3458971Y-57105804D01*
X-3458971Y-57240931D01*
G37*
G36*
X-3729228Y-57240931D02*
G01*
X-3729228Y-57105804D01*
X-3648963Y-57105804D01*
X-3648963Y-57240931D01*
G37*
D80*
G01*
X-794105Y-66201086D03*
G01*
X-294106Y-66201086D03*
G01*
X-44094Y-65701087D03*
G01*
X-544093Y-65701087D03*
G36*
X-1720850Y-66504058D02*
G01*
X-1720850Y-66294000D01*
X-1510537Y-66294000D01*
X-1510537Y-66504058D01*
G37*
D72*
G01*
X-1965705Y-65899106D03*
G36*
X-3676650Y-66504058D02*
G01*
X-3676650Y-66294000D01*
X-3466337Y-66294000D01*
X-3466337Y-66504058D01*
G37*
G01*
X-3921505Y-65899106D03*
G36*
X-2698750Y-66504058D02*
G01*
X-2698750Y-66294000D01*
X-2488437Y-66294000D01*
X-2488437Y-66504058D01*
G37*
G01*
X-2943605Y-65899106D03*
G36*
X-9384792Y-65774061D02*
G01*
X-9384792Y-65563750D01*
X-9174734Y-65563750D01*
X-9174734Y-65774061D01*
G37*
G01*
X-8779713Y-65318893D03*
G36*
X-9384792Y-63513461D02*
G01*
X-9384792Y-63303150D01*
X-9174734Y-63303150D01*
X-9174734Y-63513461D01*
G37*
G01*
X-8779713Y-63058293D03*
G01*
X-8800084Y-64739011D03*
G01*
X-9310090Y-64389000D03*
G36*
X-8905239Y-64144143D02*
G01*
X-8905239Y-63933831D01*
X-8694928Y-63933831D01*
X-8694928Y-64144143D01*
G37*
G01*
X-6114287Y-65912009D03*
G01*
X-6464300Y-66422016D03*
G36*
X-6919468Y-66017140D02*
G01*
X-6919468Y-65806827D01*
X-6709155Y-65806827D01*
X-6709155Y-66017140D01*
G37*
G01*
X-7422387Y-65924709D03*
G01*
X-7772400Y-66434716D03*
G36*
X-8227568Y-66029840D02*
G01*
X-8227568Y-65819527D01*
X-8017255Y-65819527D01*
X-8017255Y-66029840D01*
G37*
G01*
X-4825593Y-65917902D03*
G01*
X-5175605Y-66427908D03*
G36*
X-5630671Y-66022981D02*
G01*
X-5630671Y-65812924D01*
X-5420613Y-65812924D01*
X-5420613Y-66022981D01*
G37*
G01*
X-2270505Y-55842890D03*
G01*
X-1920519Y-55332884D03*
G36*
X-1675637Y-55948072D02*
G01*
X-1675637Y-55737759D01*
X-1465326Y-55737759D01*
X-1465326Y-55948072D01*
G37*
G01*
X-2620492Y-55332884D03*
G01*
X-492505Y-55842890D03*
G01*
X-142519Y-55332884D03*
G36*
X102362Y-55948072D02*
G01*
X102362Y-55737759D01*
X312673Y-55737759D01*
X312673Y-55948072D01*
G37*
G01*
X-842492Y-55332884D03*
G01*
X1285494Y-55842890D03*
G01*
X1635480Y-55332884D03*
G36*
X1880362Y-55948072D02*
G01*
X1880362Y-55737759D01*
X2090674Y-55737759D01*
X2090674Y-55948072D01*
G37*
G01*
X935507Y-55332884D03*
D88*
G01*
X1752600Y-60207906D03*
G01*
X1752600Y-59857893D03*
G01*
X25400Y-60220606D03*
G01*
X25400Y-59870593D03*
G01*
X-1676400Y-60195206D03*
G01*
X-1676400Y-59845193D03*
G36*
X4354068Y-63137796D02*
G01*
X4354068Y-63002668D01*
X4434331Y-63002668D01*
X4434331Y-63137796D01*
G37*
G36*
X4449063Y-63387731D02*
G01*
X4449063Y-63252604D01*
X4529327Y-63252604D01*
X4529327Y-63387731D01*
G37*
G36*
X4259072Y-63387731D02*
G01*
X4259072Y-63252604D01*
X4339336Y-63252604D01*
X4339336Y-63387731D01*
G37*
G36*
X4366768Y-57270396D02*
G01*
X4366768Y-57135268D01*
X4447031Y-57135268D01*
X4447031Y-57270396D01*
G37*
G36*
X4461763Y-57520331D02*
G01*
X4461763Y-57385204D01*
X4542027Y-57385204D01*
X4542027Y-57520331D01*
G37*
G36*
X4271772Y-57520331D02*
G01*
X4271772Y-57385204D01*
X4352036Y-57385204D01*
X4352036Y-57520331D01*
G37*
G36*
X4366768Y-61131196D02*
G01*
X4366768Y-60996068D01*
X4447031Y-60996068D01*
X4447031Y-61131196D01*
G37*
G36*
X4461763Y-61381131D02*
G01*
X4461763Y-61246004D01*
X4542027Y-61246004D01*
X4542027Y-61381131D01*
G37*
G36*
X4271772Y-61381131D02*
G01*
X4271772Y-61246004D01*
X4352036Y-61246004D01*
X4352036Y-61381131D01*
G37*
G36*
X-2884931Y-65227961D02*
G01*
X-2884931Y-65092834D01*
X-2804668Y-65092834D01*
X-2804668Y-65227961D01*
G37*
G36*
X-2979928Y-64978025D02*
G01*
X-2979928Y-64842898D01*
X-2899663Y-64842898D01*
X-2899663Y-64978025D01*
G37*
G36*
X-2789936Y-64978025D02*
G01*
X-2789936Y-64842898D01*
X-2709671Y-64842898D01*
X-2709671Y-64978025D01*
G37*
G36*
X4366768Y-59213496D02*
G01*
X4366768Y-59078368D01*
X4447031Y-59078368D01*
X4447031Y-59213496D01*
G37*
G36*
X4461763Y-59463431D02*
G01*
X4461763Y-59328304D01*
X4542027Y-59328304D01*
X4542027Y-59463431D01*
G37*
G36*
X4271772Y-59463431D02*
G01*
X4271772Y-59328304D01*
X4352036Y-59328304D01*
X4352036Y-59463431D01*
G37*
G36*
X4341368Y-55365396D02*
G01*
X4341368Y-55230268D01*
X4421631Y-55230268D01*
X4421631Y-55365396D01*
G37*
G36*
X4436363Y-55615331D02*
G01*
X4436363Y-55480204D01*
X4516627Y-55480204D01*
X4516627Y-55615331D01*
G37*
G36*
X4246372Y-55615331D02*
G01*
X4246372Y-55480204D01*
X4326636Y-55480204D01*
X4326636Y-55615331D01*
G37*
D89*
G01*
X6660006Y-58287437D03*
G01*
X5239994Y-57687489D03*
G01*
X5439994Y-57087490D03*
G01*
X5439994Y-58287488D03*
G01*
X6660006Y-57087541D03*
G01*
X6660032Y-64249960D03*
G01*
X5240020Y-63650012D03*
G01*
X5440019Y-63050013D03*
G01*
X5440019Y-64250011D03*
G01*
X6660032Y-63050064D03*
G01*
X6660006Y-62262461D03*
G01*
X5239994Y-61662513D03*
G01*
X5439994Y-61062514D03*
G01*
X5439994Y-62262511D03*
G01*
X6660006Y-61062565D03*
G01*
X6660032Y-60274961D03*
G01*
X5240020Y-59675014D03*
G01*
X5440019Y-59075015D03*
G01*
X5440019Y-60275012D03*
G01*
X6660032Y-59075066D03*
G01*
X6660006Y-56299963D03*
G01*
X5239994Y-55700015D03*
G01*
X5439994Y-55100016D03*
G01*
X5439994Y-56300014D03*
G01*
X6660006Y-55100067D03*
G36*
X-1805431Y-65227961D02*
G01*
X-1805431Y-65092834D01*
X-1725168Y-65092834D01*
X-1725168Y-65227961D01*
G37*
G36*
X-1900428Y-64978025D02*
G01*
X-1900428Y-64842898D01*
X-1820163Y-64842898D01*
X-1820163Y-64978025D01*
G37*
G36*
X-1710436Y-64978025D02*
G01*
X-1710436Y-64842898D01*
X-1630171Y-64842898D01*
X-1630171Y-64978025D01*
G37*
D90*
G01*
X-5080000Y-64846200D03*
G36*
X-5165089Y-64677290D02*
G01*
X-5165089Y-64507109D01*
X-4994910Y-64507109D01*
X-4994910Y-64677290D01*
G37*
G36*
X-2364231Y-65227961D02*
G01*
X-2364231Y-65092834D01*
X-2283968Y-65092834D01*
X-2283968Y-65227961D01*
G37*
G36*
X-2459228Y-64978025D02*
G01*
X-2459228Y-64842898D01*
X-2378963Y-64842898D01*
X-2378963Y-64978025D01*
G37*
G36*
X-2269236Y-64978025D02*
G01*
X-2269236Y-64842898D01*
X-2188971Y-64842898D01*
X-2188971Y-64978025D01*
G37*
G36*
X-4788154Y-56945275D02*
G01*
X-4788154Y-56724804D01*
X-4517644Y-56724804D01*
X-4517644Y-56945275D01*
G37*
G36*
X-4788154Y-57415175D02*
G01*
X-4788154Y-57194958D01*
X-4517644Y-57194958D01*
X-4517644Y-57415175D01*
G37*
G36*
X-6235700Y-62290198D02*
G01*
X-6243065Y-62289690D01*
X-6250178Y-62288420D01*
X-6257036Y-62286388D01*
X-6263639Y-62283340D01*
X-6269989Y-62279529D01*
X-6275578Y-62274958D01*
X-6280657Y-62269877D01*
X-6285229Y-62264290D01*
X-6289039Y-62257940D01*
X-6292087Y-62251336D01*
X-6294120Y-62244477D01*
X-6295389Y-62237366D01*
X-6295897Y-62230000D01*
X-6295389Y-62222634D01*
X-6294120Y-62215522D01*
X-6292087Y-62208664D01*
X-6289039Y-62202059D01*
X-6285229Y-62195709D01*
X-6280657Y-62190122D01*
X-6275578Y-62185041D01*
X-6269989Y-62180470D01*
X-6263639Y-62176659D01*
X-6257036Y-62173611D01*
X-6250178Y-62171579D01*
X-6243065Y-62170309D01*
X-6235700Y-62169802D01*
X-6228334Y-62170309D01*
X-6221221Y-62171579D01*
X-6214363Y-62173611D01*
X-6207760Y-62176659D01*
X-6201410Y-62180470D01*
X-6195821Y-62185041D01*
X-6190742Y-62190122D01*
X-6186170Y-62195709D01*
X-6182360Y-62202059D01*
X-6179312Y-62208664D01*
X-6177279Y-62215522D01*
X-6176010Y-62222634D01*
X-6175502Y-62230000D01*
X-6176010Y-62237366D01*
X-6177279Y-62244477D01*
X-6179312Y-62251336D01*
X-6182360Y-62257940D01*
X-6186170Y-62264290D01*
X-6190742Y-62269877D01*
X-6195821Y-62274958D01*
X-6201410Y-62279529D01*
X-6207760Y-62283340D01*
X-6214363Y-62286388D01*
X-6221221Y-62288420D01*
X-6228334Y-62289690D01*
G37*
G36*
X-3429000Y-59597798D02*
G01*
X-3436365Y-59597290D01*
X-3443478Y-59596020D01*
X-3450336Y-59593988D01*
X-3456939Y-59590940D01*
X-3463289Y-59587129D01*
X-3468878Y-59582558D01*
X-3473957Y-59577477D01*
X-3478529Y-59571890D01*
X-3482339Y-59565540D01*
X-3485387Y-59558936D01*
X-3487420Y-59552077D01*
X-3488689Y-59544966D01*
X-3489197Y-59537600D01*
X-3488689Y-59530234D01*
X-3487420Y-59523122D01*
X-3485387Y-59516264D01*
X-3482339Y-59509659D01*
X-3478529Y-59503309D01*
X-3473957Y-59497722D01*
X-3468878Y-59492641D01*
X-3463289Y-59488070D01*
X-3456939Y-59484259D01*
X-3450336Y-59481211D01*
X-3443478Y-59479179D01*
X-3436365Y-59477909D01*
X-3429000Y-59477402D01*
X-3421634Y-59477909D01*
X-3414521Y-59479179D01*
X-3407663Y-59481211D01*
X-3401060Y-59484259D01*
X-3394710Y-59488070D01*
X-3389121Y-59492641D01*
X-3384042Y-59497722D01*
X-3379470Y-59503309D01*
X-3375660Y-59509659D01*
X-3372612Y-59516264D01*
X-3370579Y-59523122D01*
X-3369310Y-59530234D01*
X-3368802Y-59537600D01*
X-3369310Y-59544966D01*
X-3370579Y-59552077D01*
X-3372612Y-59558936D01*
X-3375660Y-59565540D01*
X-3379470Y-59571890D01*
X-3384042Y-59577477D01*
X-3389121Y-59582558D01*
X-3394710Y-59587129D01*
X-3401060Y-59590940D01*
X-3407663Y-59593988D01*
X-3414521Y-59596020D01*
X-3421634Y-59597290D01*
G37*
G36*
X7518400Y-55482998D02*
G01*
X7511034Y-55482490D01*
X7503922Y-55481220D01*
X7497063Y-55479188D01*
X7490459Y-55476140D01*
X7484109Y-55472329D01*
X7478522Y-55467758D01*
X7473441Y-55462677D01*
X7468870Y-55457090D01*
X7465059Y-55450740D01*
X7462011Y-55444136D01*
X7459979Y-55437277D01*
X7458709Y-55430166D01*
X7458202Y-55422800D01*
X7458709Y-55415434D01*
X7459979Y-55408322D01*
X7462011Y-55401464D01*
X7465059Y-55394859D01*
X7468870Y-55388509D01*
X7473441Y-55382922D01*
X7478522Y-55377841D01*
X7484109Y-55373270D01*
X7490459Y-55369459D01*
X7497063Y-55366411D01*
X7503922Y-55364379D01*
X7511034Y-55363109D01*
X7518400Y-55362602D01*
X7525765Y-55363109D01*
X7532877Y-55364379D01*
X7539736Y-55366411D01*
X7546340Y-55369459D01*
X7552690Y-55373270D01*
X7558277Y-55377841D01*
X7563358Y-55382922D01*
X7567929Y-55388509D01*
X7571740Y-55394859D01*
X7574788Y-55401464D01*
X7576820Y-55408322D01*
X7578090Y-55415434D01*
X7578597Y-55422800D01*
X7578090Y-55430166D01*
X7576820Y-55437277D01*
X7574788Y-55444136D01*
X7571740Y-55450740D01*
X7567929Y-55457090D01*
X7563358Y-55462677D01*
X7558277Y-55467758D01*
X7552690Y-55472329D01*
X7546340Y-55476140D01*
X7539736Y-55479188D01*
X7532877Y-55481220D01*
X7525765Y-55482490D01*
G37*
D93*
G01*
X-7289800Y-58902600D03*
G01*
X-7035800Y-58902600D03*
G01*
X-6781800Y-58902600D03*
G01*
X-6527800Y-58902600D03*
G36*
X-4096765Y-57900061D02*
G01*
X-4096765Y-57659777D01*
X-3726434Y-57659777D01*
X-3726434Y-57900061D01*
G37*
G36*
X-3746754Y-58519822D02*
G01*
X-3746754Y-58279538D01*
X-3616452Y-58279538D01*
X-3616452Y-58519822D01*
G37*
G36*
X-3976878Y-58519822D02*
G01*
X-3976878Y-58279538D01*
X-3846321Y-58279538D01*
X-3846321Y-58519822D01*
G37*
G36*
X-4206747Y-58519822D02*
G01*
X-4206747Y-58279538D01*
X-4076445Y-58279538D01*
X-4076445Y-58519822D01*
G37*
G36*
X-4491736Y-59190890D02*
G01*
X-4491736Y-59010550D01*
X-4271263Y-59010550D01*
X-4271263Y-59190890D01*
G37*
G36*
X-4491736Y-58870850D02*
G01*
X-4491736Y-58690509D01*
X-4271263Y-58690509D01*
X-4271263Y-58870850D01*
G37*
M02*
