M48
METRIC,LZ,000.000
;FILE_FORMAT=3:3
;TYPE=PLATED
;Layer: Drill PTH
;EasyEDA v6.4.25, 2021-10-12T19:11:13--3:00
;c22c5ad297e649dda918693bc59ac449,3e531cdebb5f4b4d8e7d377dd7e3e81f,10
;Gerber Generator version 0.2
;Holesize 1 = 0.400 mm
T01C0.400
;Holesize 2 = 0.406 mm
T02C0.406
;Holesize 3 = 0.800 mm
T03C0.800
;Holesize 4 = 0.915 mm
T04C0.915
;Holesize 5 = 1.000 mm
T05C1.000
;Holesize 6 = 1.200 mm
T06C1.200
;Holesize 7 = 1.403 mm
T07C1.403
;Holesize 8 = 1.501 mm
T08C1.501
;Holesize 9 = 1.524 mm
T09C1.524
;Holesize 10 = 3.556 mm
T10C3.556
%
G05
G90
T01
X046609Y-647446
X046609Y-558038
X046609Y-577596
X046609Y-597027
X046609Y-616204
X046609Y-636397
X041021Y-647700
X041402Y-565658
X041311Y-585162
X041222Y-604471
X041129Y-624373
X041044Y-642780
X003429Y-636207
X029591Y-550291
X032639Y-567309
X032639Y-606044
X032639Y-586994
X-019431Y-636397
X-065532Y-624078
X-053213Y-634238
X024448Y-636207
X-076581Y-624078
X-058293Y-609092
X-050546Y-596265
X-050546Y-593471
X-051503Y-573913
X-062865Y-563118
X032639Y-626364
T02
X-029718Y-637794
X-011938Y-637477
X-029718Y-639064
X-011938Y-638747
X-062103Y-641477
X-075819Y-642620
X-072263Y-635635
X-062103Y-646557
X-072390Y-651256
X-075661Y-651256
X-065786Y-650621
X-065786Y-652018
X-065786Y-653542
X-065786Y-655193
X-046355Y-577469
X-047244Y-593471
X-051676Y-586499
X-005207Y-639953
X-004191Y-639191
X-003302Y-638302
X-002159Y-637540
X-029972Y-623824
X-016256Y-616712
X-064262Y-603123
X-064262Y-594995
X-052832Y-638429
X-051181Y-638429
X-074676Y-572783
X-073406Y-571500
X-080645Y-567703
X-073533Y-564515
X-073533Y-566039
X-061849Y-566420
X-060960Y-567690
X-060198Y-572783
X-042545Y-648335
X-056134Y-576593
X-050927Y-576580
X-056134Y-575323
X-039497Y-574929
X-035941Y-625094
X-048768Y-596138
X-038227Y-572135
X-056134Y-574053
X-018923Y-613918
X-018923Y-609854
X-084328Y-565658
X-084328Y-581660
X-068199Y-602996
X-075819Y-644144
X-055880Y-641350
X-060325Y-638937
X-063754Y-632079
X-035941Y-626491
X-011938Y-641985
X-029718Y-640588
X-019558Y-633984
X-002667Y-623824
X-010287Y-617601
X-010287Y-608584
X012192Y-573659
X002032Y-555498
X-073279Y-577977
X-060325Y-569341
X-036830Y-574929
X-070231Y-582930
X-058420Y-612267
X-057277Y-596011
X009144Y-634365
X-061849Y-644144
X-072390Y-642620
T03
X-009271Y-572643
X-009271Y-575183
X-009271Y-577723
X-009271Y-580263
X-009271Y-582803
X-009271Y-585343
X-009271Y-587883
X-009271Y-590423
X-001651Y-572643
X-001651Y-575183
X-001651Y-577723
X-001651Y-580263
X-001651Y-582803
X-001651Y-585343
X-001651Y-587883
X-001651Y-590423
X-027237Y-572643
X-027237Y-575183
X-027237Y-577723
X-027237Y-580263
X-027237Y-582803
X-027237Y-585343
X-027237Y-587883
X-027237Y-590423
X-019617Y-572643
X-019617Y-575183
X-019617Y-577723
X-019617Y-580263
X-019617Y-582803
X-019617Y-585343
X-019617Y-587883
X-019617Y-590423
X008323Y-572643
X008323Y-575183
X008323Y-577723
X008323Y-580263
X008323Y-582803
X008323Y-585343
X008323Y-587883
X008323Y-590423
X015943Y-572643
X015943Y-575183
X015943Y-577723
X015943Y-580263
X015943Y-582803
X015943Y-585343
X015943Y-587883
X015943Y-590423
T04
X-047117Y-560578
X-047117Y-558038
X-047117Y-555498
X-047117Y-552958
X-035052Y-558165
X-035052Y-555625
X-035052Y-553085
X-007747Y-617474
X-007747Y-614934
X-007747Y-612394
X-007747Y-609854
X-049911Y-624840
X-049911Y-622300
X-049911Y-619760
X-049911Y-617220
X-030099Y-617474
X-030099Y-614934
X-030099Y-612394
X-030099Y-609854
X-050800Y-648462
X-050800Y-645922
X-072898Y-589026
X-070358Y-589026
X-067818Y-589026
X-065278Y-589026
T05
X-038862Y-597916
X-038862Y-602996
X-044958Y-634746
X-044958Y-639826
X017526Y-602079
X017526Y-598579
X000254Y-602206
X000254Y-598706
X-016764Y-601952
X-016764Y-598452
T06
X067659Y-666576
X067659Y-651176
X038259Y-661376
X038259Y-656376
X025861Y-616871
X010461Y-616871
X020661Y-646271
X015661Y-646271
X-022705Y-558429
X-019205Y-553329
X-015705Y-558429
X-026205Y-553329
X-004925Y-558429
X-001425Y-553329
X002075Y-558429
X-008425Y-553329
X012855Y-558429
X016355Y-553329
X019855Y-558429
X009355Y-553329
T07
X-092797Y-614652
X-087797Y-611152
X-092797Y-624304
X-087797Y-620804
X-016157Y-663991
X-019657Y-658991
X-035715Y-663991
X-039215Y-658991
X-025936Y-663991
X-029436Y-658991
X-092797Y-656689
X-087797Y-653189
X-092797Y-634083
X-087797Y-630583
X-088001Y-647390
X-093101Y-643890
X-088001Y-640390
X-061143Y-659120
X-064643Y-664220
X-068143Y-659120
X-074224Y-659247
X-077724Y-664347
X-081224Y-659247
X-048256Y-659179
X-051756Y-664279
X-055256Y-659179
T08
X-091146Y-585276
X-091146Y-590276
X-086146Y-592776
X-086146Y-587776
X-091019Y-598103
X-091019Y-603103
X-086019Y-605603
X-086019Y-600603
X082891Y-631563
X082891Y-626563
X077891Y-624063
X077891Y-629063
X082891Y-584163
X082891Y-579163
X077891Y-576663
X077891Y-581663
X082891Y-647363
X082891Y-642363
X077891Y-639863
X077891Y-644863
X082891Y-568363
X082891Y-563363
X077891Y-560863
X077891Y-565863
X082891Y-599963
X082891Y-594963
X077891Y-592463
X077891Y-597463
X082891Y-615763
X082891Y-610763
X077891Y-608263
X077891Y-613263
X024571Y-661757
X029571Y-661757
X032071Y-656757
X027071Y-656757
X-007941Y-662011
X-002941Y-662011
X-000441Y-657011
X-005441Y-657011
T09
X066600Y-582874
X052400Y-576875
X054400Y-570875
X054400Y-582875
X066600Y-570876
X066600Y-642500
X052400Y-636500
X054400Y-630500
X054400Y-642500
X066600Y-630501
X066600Y-622625
X052400Y-616625
X054400Y-610625
X054400Y-622625
X066600Y-610626
X066600Y-602750
X052400Y-596750
X054400Y-590750
X054400Y-602750
X066600Y-590751
X066600Y-563000
X052400Y-557000
X054400Y-551000
X054400Y-563000
X066600Y-551001
T10
X080264Y-658241
X-091821Y-663956
X080391Y-554101
X005588Y-660908
X-084455Y-558800
X000381Y-609981
M30
